<svg xmlns="http://www.w3.org/2000/svg" width="30.356" height="42.499" viewBox="0 0 30.356 42.499">
  <path id="Path_7" data-name="Path 7" d="M19.171,6.743a4.553,4.553,0,1,0-7.986,0A12.147,12.147,0,0,0,3.036,18.214v9.107c0,.086,0,.171.01.255a4.554,4.554,0,0,0,1.507,8.852H9.107a6.071,6.071,0,1,0,12.143,0H25.8a4.554,4.554,0,0,0,1.507-8.852c.007-.084.01-.169.01-.255V18.214A12.147,12.147,0,0,0,19.171,6.743ZM16.7,4.553a1.518,1.518,0,1,0-1.518,1.518A1.518,1.518,0,0,0,16.7,4.553Zm7.589,13.66a9.107,9.107,0,1,0-18.214,0V30.356H4.553a1.518,1.518,0,0,0,0,3.036H25.8a1.518,1.518,0,0,0,0-3.036H24.285ZM18.214,36.428H12.143a3.036,3.036,0,0,0,6.071,0Z" transform="translate(0 0)" fill="#828282" fill-rule="evenodd"/>
</svg>
