<svg xmlns="http://www.w3.org/2000/svg" width="41.001" height="30.422" viewBox="0 0 41.001 30.422"><g transform="translate(-2.027 -14.458)"><g transform="translate(2.027 14.458)"><path d="M43.315,42.331l-2.028-4.4a13.638,13.638,0,0,0,1.856-6.861A13.775,13.775,0,0,0,29.377,17.3a13.537,13.537,0,0,0-6.041,1.424A11.766,11.766,0,0,0,2.8,26.537a11.8,11.8,0,0,0,1.51,5.782l-1.64,3.625a1.843,1.843,0,0,0,.388,2.114,1.871,1.871,0,0,0,1.295.561,1.692,1.692,0,0,0,.777-.173l3.625-1.64a11.8,11.8,0,0,0,5.782,1.51,12.924,12.924,0,0,0,2.891-.345,13.784,13.784,0,0,0,11.91,6.9,13.638,13.638,0,0,0,6.861-1.856l4.4,2.028a1.87,1.87,0,0,0,.82.173,2.031,2.031,0,0,0,1.424-.6A2,2,0,0,0,43.315,42.331ZM14.533,35.944a9.439,9.439,0,0,1-5.049-1.467,1.218,1.218,0,0,0-.647-.173.87.87,0,0,0-.475.129L5.384,35.772l1.338-2.977a1.154,1.154,0,0,0-.086-1.122,9.962,9.962,0,0,1-1.467-5.135,9.368,9.368,0,0,1,16.053-6.559,14.1,14.1,0,0,0-5.477,8.889,12.2,12.2,0,0,0-.176,2.2,13.924,13.924,0,0,0,.82,4.66A8.732,8.732,0,0,1,14.533,35.944ZM38.87,38.361l1.856,4.1-4.1-1.856a1.154,1.154,0,0,0-1.122.086A11.574,11.574,0,0,1,29.334,42.5,11.392,11.392,0,1,1,40.726,31.111a11.208,11.208,0,0,1-1.812,6.171A1.169,1.169,0,0,0,38.87,38.361Z" transform="translate(-2.488 -14.8)"/><circle cx="2.158" cy="2.158" r="2.158" transform="translate(18.129 14.111)"/><circle cx="2.158" cy="2.158" r="2.158" transform="translate(24.688 14.111)"/><circle cx="2.158" cy="2.158" r="2.158" transform="translate(31.29 14.111)"/></g></g></svg>