<svg xmlns="http://www.w3.org/2000/svg" width="35.133" height="30.85" viewBox="0 0 35.133 30.85"><g opacity="0.59"><path d="M26.318,20.1a4.6,4.6,0,0,0-4.385,3.3H17.238A1.235,1.235,0,0,0,16,24.691a1.277,1.277,0,0,0,1.29,1.29h4.695a4.55,4.55,0,0,0,4.385,3.3,4.612,4.612,0,0,0,4.437-3.3H49.843a1.29,1.29,0,0,0,0-2.579H30.806A4.723,4.723,0,0,0,26.318,20.1Zm.052,2.579a2.012,2.012,0,1,1-2.012,2.012A2.014,2.014,0,0,1,26.369,22.679Z" transform="translate(-16 -20.1)"/><g transform="translate(0 10.318)"><path d="M41.846,40.1a4.6,4.6,0,0,0-4.385,3.3H17.29A1.246,1.246,0,0,0,16,44.691a1.277,1.277,0,0,0,1.29,1.29H37.461a4.55,4.55,0,0,0,4.385,3.3,4.612,4.612,0,0,0,4.437-3.3h3.56a1.29,1.29,0,0,0,0-2.579h-3.56A4.612,4.612,0,0,0,41.846,40.1Zm.052,2.579a2.012,2.012,0,1,1-2.012,2.012A1.982,1.982,0,0,1,41.9,42.679Z" transform="translate(-16 -40.1)"/></g><g transform="translate(0 21.668)"><path d="M32.509,62.1a4.6,4.6,0,0,0-4.385,3.3H17.29A1.246,1.246,0,0,0,16,66.691a1.277,1.277,0,0,0,1.29,1.29H28.175a4.55,4.55,0,0,0,4.385,3.3A4.612,4.612,0,0,0,37,67.981H49.843a1.29,1.29,0,1,0,0-2.579h-12.9A4.612,4.612,0,0,0,32.509,62.1Zm.052,2.579a2.012,2.012,0,1,1-2.012,2.012A2.048,2.048,0,0,1,32.56,64.679Z" transform="translate(-16 -62.1)"/></g></g></svg>