<svg xmlns="http://www.w3.org/2000/svg" xmlns:xlink="http://www.w3.org/1999/xlink" width="45.647" height="45.65" viewBox="0 0 45.647 45.65">
  <defs>
    <clipPath id="clip-path">
      <rect id="Rectangle_17333" data-name="Rectangle 17333" width="45.647" height="45.65" fill="#828282"/>
    </clipPath>
  </defs>
  <g id="Group_10647" data-name="Group 10647" clip-path="url(#clip-path)">
    <path id="Path_10424" data-name="Path 10424" d="M45.647,14.443a4.984,4.984,0,0,1-1.669,2.511c-.424.394-.829.81-1.23,1.228A3.375,3.375,0,0,1,38.621,19c-.086.126-.178.257-.265.391-1.688,2.6-3.395,5.2-5.052,7.818a18.072,18.072,0,0,1-2.456,2.749,1.226,1.226,0,0,0-.379.934c.013,3.773.008,7.547.008,11.321v.585c.8,0,1.565-.013,2.332,0a1.417,1.417,0,0,1,1.326,1.935,1.39,1.39,0,0,1-1.219.908,4.172,4.172,0,0,1-.445.006H1.761a3.151,3.151,0,0,1-.621-.032A1.43,1.43,0,0,1,0,44.12,1.414,1.414,0,0,1,1.382,42.8c.786-.019,1.573,0,2.429,0v-.584q0-7.867,0-15.733c0-1.255.5-1.759,1.751-1.76h4c-.173-.621-.356-1.194-.491-1.779A12.1,12.1,0,0,1,16.966,8.857c2.465-.8,5.013-1.335,7.524-1.99.644-.168,1.29-.329,1.946-.5-.029-.358-.079-.693-.078-1.028a3.162,3.162,0,0,1,.956-2.28c.679-.687,1.372-1.359,2.045-2.052A4.318,4.318,0,0,1,31.2,0h1.07a5.087,5.087,0,0,1,2.488,1.619q4.643,4.683,9.327,9.326a4.948,4.948,0,0,1,1.557,2.428Zm-9.18,2.614c-.111-.12-.2-.22-.292-.314q-3.745-3.788-7.486-7.58a.725.725,0,0,0-.807-.23c-3.015.782-6.035,1.543-9.054,2.311A9.557,9.557,0,0,0,14.1,14.025a9.313,9.313,0,0,0-1.552,10.324.56.56,0,0,0,.609.376c.474-.025.951-.023,1.426,0a.587.587,0,0,0,.632-.354c.3-.578.636-1.141.974-1.7a6.356,6.356,0,0,1,10.73-.328,1.527,1.527,0,0,1-.2,2.354q-3.446,3.457-6.892,6.914a3.606,3.606,0,0,0-.438.5,1.883,1.883,0,0,0,.953,2.961,2,2,0,0,0,2.1-.638q3.931-4.012,7.883-8a2.227,2.227,0,0,0,.285-.34c1.95-3,3.9-6,5.867-9.039M27.609,33.275c-.173.164-.282.26-.383.364Q25.817,35.067,24.41,36.5a4.762,4.762,0,0,1-7.23-6.187,21.966,21.966,0,0,1,1.778-1.872c.255-.26.542-.489.814-.732l-.085-.106h-13V42.76H27.609ZM31.761,2.79a3.254,3.254,0,0,0-.437.3q-.953.937-1.89,1.889c-.339.344-.334.548.017.9q5.118,5.181,10.24,10.359c.366.37.573.371.939.011.6-.594,1.2-1.195,1.8-1.793.5-.5.5-.629.006-1.126l-5.7-5.7Q34.495,5.4,32.255,3.162a4.513,4.513,0,0,0-.495-.372m-7.7,20.6a3.5,3.5,0,0,0-5.675,1.283.378.378,0,0,0,.115.04c1.32,0,2.641.008,3.961,0a.512.512,0,0,0,.316-.116c.427-.387.841-.789,1.283-1.208" transform="translate(0)" fill="#828282"/>
  </g>
</svg>
