<svg xmlns="http://www.w3.org/2000/svg" width="52.801" height="42.499" viewBox="0 0 52.801 42.499">
  <path id="Path_3" data-name="Path 3" d="M35.4,969.362a2.259,2.259,0,0,0-1.187.4L9.741,989.082a2.306,2.306,0,0,0-.423,2.8,2,2,0,0,0,2.8.241L35.4,973.748,58.679,992.12a1.978,1.978,0,0,0,2.8-.241,2.193,2.193,0,0,0-.423-2.8L36.584,969.764a1.968,1.968,0,0,0-1.187-.4ZM19.943,988.217l-3.864,3.058v18.654a1.932,1.932,0,0,0,1.932,1.932H30.246a1.932,1.932,0,0,0,1.932-1.932V1002.2a3.22,3.22,0,0,1,6.439,0v7.727a1.932,1.932,0,0,0,1.932,1.932H52.783a1.932,1.932,0,0,0,1.932-1.932V991.275l-3.863-3.058V1008H42.48v-5.8a7.083,7.083,0,1,0-14.166,0v5.8H19.943Z" transform="translate(-9 -969.362)" fill="#828282"/>
</svg>
