<svg xmlns="http://www.w3.org/2000/svg" width="32.024" height="32.5" viewBox="0 0 32.024 32.5"><path d="M27.454,34.25H6A4.255,4.255,0,0,1,1.75,30V19.5A4.255,4.255,0,0,1,6,15.25H9.688l5.67-12.758A1.25,1.25,0,0,1,16.5,1.75,5.757,5.757,0,0,1,22.25,7.5v4.75h7.234a4.25,4.25,0,0,1,4.242,4.888l-2.07,13.5a4.25,4.25,0,0,1-4.2,3.611Zm-15.7-2.5h15.7a1.758,1.758,0,0,0,1.73-1.488l2.07-13.5A1.75,1.75,0,0,0,29.5,14.75H21a1.25,1.25,0,0,1-1.25-1.25v-6a3.256,3.256,0,0,0-2.479-3.158L11.75,16.765ZM6,17.75A1.752,1.752,0,0,0,4.25,19.5V30A1.752,1.752,0,0,0,6,31.75H9.25v-14Z" transform="translate(-1.75 -1.75)"/></svg>