<svg xmlns="http://www.w3.org/2000/svg" width="43.767" height="43.769" viewBox="0 0 43.767 43.769">
  <path id="Icon_ionic-ios-person" data-name="Icon ionic-ios-person" d="M48.246,47.163c-.821-3.625-5.505-5.391-7.124-5.961a53.114,53.114,0,0,0-5.938-1.14A6.034,6.034,0,0,1,32.437,38.8c-.456-.547-.182-5.619-.182-5.619a16.906,16.906,0,0,0,1.3-2.473,31.9,31.9,0,0,0,.957-4.32s.935,0,1.265-1.641c.353-1.79.912-2.485.843-3.818-.068-1.311-.786-1.277-.786-1.277a19.984,19.984,0,0,0,.775-5.847c.1-4.685-3.568-9.3-10.213-9.3-6.736,0-10.327,4.616-10.224,9.3a20.845,20.845,0,0,0,.764,5.847s-.718-.034-.786,1.277c-.068,1.334.49,2.029.843,3.818.319,1.641,1.265,1.641,1.265,1.641a31.9,31.9,0,0,0,.957,4.32,16.906,16.906,0,0,0,1.3,2.473s.274,5.072-.182,5.619a6.034,6.034,0,0,1-2.747,1.265,53.114,53.114,0,0,0-5.938,1.14c-1.619.57-6.3,2.337-7.124,5.961a.911.911,0,0,0,.9,1.106H47.357A.909.909,0,0,0,48.246,47.163Z" transform="translate(-4.501 -4.5)" fill="#828282"/>
</svg>
