<svg xmlns="http://www.w3.org/2000/svg" width="43.601" height="43.601" viewBox="0 0 43.601 43.601"><g transform="translate(-4287.249 -8797.955)"><g transform="translate(4287.249 8797.955)"><path d="M19.036,12A7.036,7.036,0,1,1,12,19.036,7.044,7.044,0,0,1,19.036,12Zm0,11.073A4.036,4.036,0,1,0,15,19.036,4.041,4.041,0,0,0,19.036,23.073Z" transform="translate(2.764 2.764)" fill="#828282"/><path d="M21.948,43.6a5.2,5.2,0,0,1-5.191-5.191v-.146a1.536,1.536,0,0,0-1.011-1.4q-.044-.016-.088-.036a1.545,1.545,0,0,0-1.7.3l-.1.1a5.193,5.193,0,1,1-7.343-7.345l.1-.1a1.538,1.538,0,0,0,.3-1.7l-.006-.015A1.544,1.544,0,0,0,5.5,27.139h-.31a5.191,5.191,0,0,1,0-10.382h.146a1.536,1.536,0,0,0,1.4-1.011q.016-.044.036-.088a1.538,1.538,0,0,0-.3-1.7l-.1-.1a5.193,5.193,0,1,1,7.345-7.343l.1.1a1.545,1.545,0,0,0,1.7.3,1.5,1.5,0,0,1,.358-.107A1.544,1.544,0,0,0,16.609,5.5v-.31a5.191,5.191,0,0,1,10.382,0v.162a1.544,1.544,0,0,0,.936,1.412l.015.006a1.545,1.545,0,0,0,1.7-.3l.1-.1a5.193,5.193,0,1,1,7.343,7.345l-.1.1a1.538,1.538,0,0,0-.3,1.7,1.5,1.5,0,0,1,.107.358,1.544,1.544,0,0,0,1.311.741h.31a5.191,5.191,0,0,1,0,10.382h-.162a1.544,1.544,0,0,0-1.412.936l-.006.015a1.538,1.538,0,0,0,.3,1.7l.1.1a5.193,5.193,0,1,1-7.345,7.343l-.1-.1a1.545,1.545,0,0,0-1.7-.3l-.015.006a1.544,1.544,0,0,0-.936,1.412v.31A5.2,5.2,0,0,1,21.948,43.6Zm-5.122-9.535a4.545,4.545,0,0,1,2.931,4.143q0,.018,0,.035v.166a2.191,2.191,0,1,0,4.382,0V38.1s0,0,0-.006a4.566,4.566,0,0,1,7.753-3.244l.012.012.111.111a2.193,2.193,0,1,0,3.1-3.1l-.111-.111-.012-.012a4.57,4.57,0,0,1,3.244-7.753h.172a2.191,2.191,0,0,0,0-4.382h-.32a4.543,4.543,0,0,1-4.159-2.755,1.5,1.5,0,0,1-.113-.43,4.521,4.521,0,0,1,1.028-4.716l.012-.012.111-.111a2.193,2.193,0,1,0-3.1-3.1l-.111.111-.012.012a4.57,4.57,0,0,1-7.753-3.244s0,0,0-.006V5.191a2.191,2.191,0,1,0-4.382,0V5.5s0,0,0,.006A4.543,4.543,0,0,1,16.855,9.67a1.5,1.5,0,0,1-.43.113,4.546,4.546,0,0,1-4.716-1.028L11.7,8.743l-.111-.111a2.193,2.193,0,1,0-3.1,3.1l.111.111.012.012a4.523,4.523,0,0,1,.928,4.97,4.545,4.545,0,0,1-4.143,2.931h-.2a2.191,2.191,0,0,0,0,4.382h.32a4.57,4.57,0,0,1,3.244,7.753l-.012.012-.111.111a2.193,2.193,0,1,0,3.1,3.1l.111-.111.012-.012a4.545,4.545,0,0,1,4.97-.928Z" fill="#828282"/></g></g></svg>