<svg xmlns="http://www.w3.org/2000/svg" width="35.101" height="33.724" viewBox="0 0 35.101 33.724"><path d="M17.487-1.5A3.405,3.405,0,0,1,20.557.4l3.571,7.24,7.986,1.164a3.421,3.421,0,0,1,1.892,5.835l-5.776,5.629L29.6,28.222a3.4,3.4,0,0,1-.747,2.771,3.433,3.433,0,0,1-2.627,1.228,3.377,3.377,0,0,1-1.587-.4L17.491,28.07,10.35,31.824a3.369,3.369,0,0,1-1.591.4,3.423,3.423,0,0,1-3.372-4l1.367-7.953L.977,14.64A3.421,3.421,0,0,1,2.87,8.805l7.985-1.164L14.424.4A3.4,3.4,0,0,1,17.487-1.5ZM26.222,29.22a.452.452,0,0,0,.334-.162.383.383,0,0,0,.083-.33l-1.633-9.507,6.907-6.731a.421.421,0,0,0-.23-.717l-9.547-1.392L17.868,1.731a.408.408,0,0,0-.381-.232.394.394,0,0,0-.373.233l-4.266,8.65L3.3,11.774a.421.421,0,0,0-.232.717l6.907,6.731L8.344,28.73a.386.386,0,0,0,.084.332.448.448,0,0,0,.331.161.4.4,0,0,0,.188-.05l0,0,8.54-4.489,8.54,4.489A.4.4,0,0,0,26.222,29.22Z" transform="translate(0.059 1.501)"/></svg>