<svg xmlns="http://www.w3.org/2000/svg" xmlns:xlink="http://www.w3.org/1999/xlink" width="36.751" height="36.753" viewBox="0 0 36.751 36.753"><defs><clipPath id="a"><rect width="36.751" height="36.753" fill="none"/></clipPath></defs><g clip-path="url(#a)"><path d="M36.75,11.628a4.013,4.013,0,0,1-1.343,2.021c-.342.317-.668.652-.99.988a2.717,2.717,0,0,1-3.323.657c-.069.1-.144.207-.214.315-1.359,2.1-2.733,4.183-4.068,6.294a14.55,14.55,0,0,1-1.978,2.213.987.987,0,0,0-.3.752c.011,3.038.006,6.076.006,9.114v.471c.642,0,1.26-.011,1.877,0a1.141,1.141,0,0,1,1.067,1.558,1.119,1.119,0,0,1-.981.731,3.359,3.359,0,0,1-.359.005H1.418a2.537,2.537,0,0,1-.5-.026A1.151,1.151,0,0,1,0,35.521a1.139,1.139,0,0,1,1.11-1.062c.633-.015,1.267,0,1.955,0v-.471q0-6.333,0-12.667c0-1.011.4-1.416,1.41-1.417H7.7c-.139-.5-.286-.962-.4-1.432A9.743,9.743,0,0,1,13.659,7.131c1.985-.641,4.036-1.075,6.058-1.6.518-.135,1.038-.265,1.567-.4-.023-.289-.064-.558-.063-.828a2.546,2.546,0,0,1,.769-1.836c.546-.553,1.1-1.094,1.646-1.652A3.476,3.476,0,0,1,25.122,0h.861a4.1,4.1,0,0,1,2,1.3q3.738,3.771,7.51,7.509a3.984,3.984,0,0,1,1.254,1.955Zm-7.391,2.1c-.089-.1-.16-.177-.235-.253q-3.015-3.05-6.027-6.1a.583.583,0,0,0-.65-.185c-2.428.629-4.859,1.242-7.289,1.861a7.7,7.7,0,0,0-3.809,2.239A7.5,7.5,0,0,0,10.1,19.6a.451.451,0,0,0,.491.3c.382-.02.766-.019,1.148,0a.473.473,0,0,0,.509-.285c.244-.465.512-.919.784-1.368a5.117,5.117,0,0,1,8.639-.264,1.229,1.229,0,0,1-.164,1.9q-2.775,2.783-5.549,5.567a2.9,2.9,0,0,0-.352.4,1.516,1.516,0,0,0,.767,2.384,1.612,1.612,0,0,0,1.687-.514q3.165-3.23,6.347-6.443a1.793,1.793,0,0,0,.229-.274c1.57-2.416,3.137-4.833,4.724-7.278M22.228,26.79c-.139.132-.227.21-.309.293q-1.134,1.15-2.267,2.3A3.834,3.834,0,0,1,13.832,24.4,17.686,17.686,0,0,1,15.264,22.9c.206-.209.436-.393.655-.589l-.069-.086H5.388V34.427h16.84ZM25.571,2.246a2.62,2.62,0,0,0-.352.242q-.767.754-1.522,1.521c-.273.277-.269.441.014.727q4.121,4.172,8.244,8.34c.295.3.462.3.756.009.485-.478.966-.962,1.447-1.444.4-.4.4-.507,0-.907l-4.59-4.59q-1.8-1.8-3.6-3.6a3.633,3.633,0,0,0-.4-.3M19.37,18.83A2.817,2.817,0,0,0,14.8,19.863a.3.3,0,0,0,.092.032c1.063,0,2.126.006,3.189,0a.413.413,0,0,0,.255-.094c.344-.312.677-.635,1.033-.972" transform="translate(0.001)"/></g></svg>